# xmcd CD database file
#
# Track frame offsets:
#	150
#	35820
#	65375
#	77977
#	103645
#	133920
#	157777
#	195425
#	201910
#	229950
#	240967
#	272142
#	299110
#	304105
#
# Disc length: 4594 seconds
#
# Revision: 0
# Processed by: cddbd v1.5.2PL0 Copyright (c) Steve Scherf et al.
# Submitted via: cdripper 1,0,33,916
#
DISCID=cc11f00e
DTITLE=Bela Fleck and the Flecktones - Live at the Quick
DYEAR=2001
DGENRE=Jazz
TTITLE0=That Old Thing (Intro)/Earth Jam
TTITLE1=Zona Mona
TTITLE2=Ovombo Summit
TTITLE3=Hall Of Mirrors
TTITLE4=Scratch and Sniff
TTITLE5=Improv - Amazing Grace
TTITLE6=Big Country
TTITLE7=Interlude
TTITLE8=Lover's Leap
TTITLE9=Alash Khem (Alash River Song)
TTITLE10=A Moment So Close
TTITLE11=Improv - Prelude from Bach Violin Partitia #3
TTITLE12=Intro
TTITLE13=Hoedown
EXTD=YEAR: 2001
EXTT0=
EXTT1=
EXTT2=
EXTT3=
EXTT4=
EXTT5=
EXTT6=
EXTT7=
EXTT8=
EXTT9=
EXTT10=
EXTT11=
EXTT12=
EXTT13=
PLAYORDER=
